<svg xmlns="http://www.w3.org/2000/svg" viewBox="0 0 600 500"><rect width="600" height="500" rx="24" fill="#3a2a20"/><g fill="none" stroke="#c48a61" stroke-width="14" stroke-linecap="round"><path d="M145 315c70-15 112-12 170 8 56 19 97 15 132-10"/><path d="M445 313c16 50 30 90 55 128"/></g><path d="M126 316c-4-72 51-114 120-78 39 20 47 57 38 91-44-18-103-19-158-13z" fill="#a75f38"/><g fill="#c48a61"><ellipse cx="455" cy="105" rx="15" ry="45" transform="rotate(-30 455 105)"/><ellipse cx="505" cy="135" rx="15" ry="48" transform="rotate(25 505 135)"/><ellipse cx="405" cy="130" rx="15" ry="45" transform="rotate(-60 405 130)"/></g><text x="300" y="430" text-anchor="middle" fill="#f4e7d8" font-family="Georgia" font-size="28" letter-spacing="5">LA PIPA</text></svg>