<svg xmlns="http://www.w3.org/2000/svg" viewBox="0 0 900 620"><rect width="900" height="620" fill="#eee0c9"/><rect x="28" y="28" width="844" height="564" rx="24" fill="#fff8ec" stroke="#70462f" stroke-width="4"/><g fill="#70462f"><text x="70" y="100" font-family="Georgia" font-size="34">PIPATEKA</text><text x="70" y="150" font-family="Georgia" font-size="46">Mixture: Scottish Blend</text><text x="70" y="190" font-family="Georgia" font-size="24">Mac Baren · Scottish</text></g><ellipse cx="560" cy="370" rx="240" ry="92" fill="#8d5b35"/><ellipse cx="560" cy="350" rx="205" ry="62" fill="#4d3020"/><path d="M355 355 C230 290 150 320 112 375 C85 415 128 455 175 442 C222 430 234 385 288 392 L390 430" fill="none" stroke="#3b2519" stroke-width="28"/><path d="M525 280 C485 215 535 165 575 210" fill="none" stroke="#b38a62" stroke-width="9" opacity=".65"/><g fill="#9b6a3f"><circle cx="690" cy="470" r="20"/><circle cx="730" cy="450" r="15"/><circle cx="765" cy="475" r="18"/><circle cx="710" cy="500" r="13"/></g></svg>